<svg xmlns="http://www.w3.org/2000/svg" viewBox="0 0 580.9 106.0" width="581" height="106" role="img" aria-label="AssetControlPro">
  <g>
    <g transform="translate(13.61 19.08) scale(0.6923)">
      <path d="M 44.91 10.00 L 47.31 10.00 L 72.72 87.53 L 69.85 88.47 Z" fill="#EFE7D6"/>
      <line x1="45.72" y1="10.00" x2="45.72" y2="63.13" stroke="#EFE7D6" stroke-width="1.61" stroke-linecap="butt"/>
      <line x1="45.72" y1="69.89" x2="45.72" y2="88.00" stroke="#EFE7D6" stroke-width="1.61" stroke-linecap="butt"/>
      <line x1="18.00" y1="78.15" x2="18.00" y2="88.00" stroke="#EFE7D6" stroke-width="0.20" stroke-linecap="butt"/>
      <line x1="24.95" y1="55.88" x2="24.95" y2="88.00" stroke="#EFE7D6" stroke-width="0.40" stroke-linecap="butt"/>
      <line x1="31.79" y1="37.77" x2="31.79" y2="69.89" stroke="#EFE7D6" stroke-width="1.01" stroke-linecap="butt"/>
      <line x1="31.79" y1="78.15" x2="31.79" y2="88.00" stroke="#EFE7D6" stroke-width="1.01" stroke-linecap="butt"/>
      <line x1="38.74" y1="22.26" x2="39.14" y2="51.67" stroke="#EFE7D6" stroke-width="1.21" stroke-linecap="butt"/>
      <line x1="38.74" y1="59.40" x2="38.74" y2="88.00" stroke="#EFE7D6" stroke-width="1.21" stroke-linecap="butt"/>
      <rect x="68.44" y="80.78" width="13.60" height="14.41" fill="#C8873A"/>
    </g>
    <path d="M10.19 -4.58 C8.93 -5.47 7.98 -6.95 7.46 -9.08 L2.00 -9.08 C3.10 -2.37 7.39 0.96 14.92 0.96 C16.69 0.96 18.32 0.81 19.88 0.37 C21.42 -0.07 22.75 -0.67 24.01 -1.48 C26.52 -3.17 27.77 -5.76 27.77 -9.23 C27.77 -12.78 26.16 -15.29 22.75 -16.92 C21.35 -17.58 19.80 -18.10 18.10 -18.47 C16.47 -18.84 14.92 -19.28 13.52 -19.73 C12.04 -20.16 10.86 -20.75 9.90 -21.42 C8.93 -22.09 8.43 -23.12 8.43 -24.60 C8.43 -26.07 9.01 -27.18 10.19 -27.85 C11.38 -28.59 12.78 -28.96 14.34 -28.96 C15.95 -28.96 17.36 -28.59 18.47 -28.00 C19.58 -27.40 20.46 -26.22 20.98 -24.45 L26.52 -24.45 C25.85 -27.70 24.45 -29.99 22.38 -31.25 C20.25 -32.57 17.66 -33.24 14.47 -33.24 C11.38 -33.24 8.65 -32.35 6.35 -30.73 C4.13 -29.03 2.95 -26.59 2.95 -23.34 C2.95 -21.79 3.39 -20.38 4.21 -19.21 C5.10 -17.95 6.35 -16.99 7.98 -16.25 C9.45 -15.58 11.01 -15.07 12.63 -14.62 C14.25 -14.25 15.81 -13.82 17.29 -13.37 C20.61 -12.26 22.31 -10.64 22.31 -8.56 C22.31 -5.02 19.95 -3.32 15.21 -3.32 C13.23 -3.32 11.52 -3.69 10.19 -4.58 Z M41.39 -4.58 C40.13 -5.47 39.17 -6.95 38.65 -9.08 L33.19 -9.08 C34.30 -2.37 38.58 0.96 46.12 0.96 C47.89 0.96 49.51 0.81 51.07 0.37 C52.62 -0.07 53.95 -0.67 55.20 -1.48 C57.72 -3.17 58.97 -5.76 58.97 -9.23 C58.97 -12.78 57.35 -15.29 53.95 -16.92 C52.55 -17.58 50.99 -18.10 49.29 -18.47 C47.67 -18.84 46.12 -19.28 44.71 -19.73 C43.24 -20.16 42.06 -20.75 41.10 -21.42 C40.13 -22.09 39.62 -23.12 39.62 -24.60 C39.62 -26.07 40.21 -27.18 41.39 -27.85 C42.58 -28.59 43.97 -28.96 45.53 -28.96 C47.15 -28.96 48.56 -28.59 49.66 -28.00 C50.77 -27.40 51.66 -26.22 52.18 -24.45 L57.72 -24.45 C57.05 -27.70 55.64 -29.99 53.58 -31.25 C51.44 -32.57 48.86 -33.24 45.67 -33.24 C42.58 -33.24 39.84 -32.35 37.54 -30.73 C35.33 -29.03 34.15 -26.59 34.15 -23.34 C34.15 -21.79 34.59 -20.38 35.41 -19.21 C36.30 -17.95 37.54 -16.99 39.17 -16.25 C40.65 -15.58 42.21 -15.07 43.82 -14.62 C45.45 -14.25 47.01 -13.82 48.49 -13.37 C51.81 -12.26 53.51 -10.64 53.51 -8.56 C53.51 -5.02 51.14 -3.32 46.41 -3.32 C44.42 -3.32 42.72 -3.69 41.39 -4.58 Z M99.70 -16.99 C99.70 -21.42 97.92 -25.27 94.53 -28.59 C91.20 -31.76 87.21 -33.39 82.71 -33.39 C77.97 -33.39 73.99 -31.70 70.67 -28.37 C67.34 -25.05 65.72 -21.05 65.72 -16.40 C65.72 -11.67 67.34 -7.69 70.67 -4.43 C72.22 -2.89 73.99 -1.70 76.06 -0.81 C78.12 0.07 80.56 0.52 83.45 0.52 C86.33 0.52 89.14 -0.37 91.94 -2.15 C94.75 -3.91 96.81 -6.43 98.22 -9.53 L92.31 -9.53 C91.13 -7.98 89.73 -6.80 88.03 -5.91 C86.33 -5.02 84.55 -4.65 82.71 -4.65 C79.90 -4.65 77.39 -5.54 75.17 -7.39 C72.95 -9.16 71.56 -11.45 71.11 -14.25 L99.70 -14.25 L99.70 -16.99 Z M94.23 -18.69 L71.19 -18.69 C71.48 -20.01 72.00 -21.27 72.73 -22.46 C75.10 -26.29 78.43 -28.22 82.71 -28.22 C85.44 -28.22 87.88 -27.33 90.03 -25.55 C92.24 -23.71 93.57 -21.42 94.23 -18.69 Z M105.63 -27.70 L113.76 -27.70 L113.76 0.00 L118.93 0.00 L118.93 -27.70 L126.98 -27.70 L126.98 -32.50 L118.93 -32.50 L118.93 -45.13 L113.76 -45.13 L113.76 -32.50 L105.63 -32.50 L105.63 -27.70 Z M181.60 -15.36 L175.91 -15.36 C174.13 -12.12 171.69 -9.45 168.59 -7.54 C165.48 -5.54 162.02 -4.58 158.33 -4.58 C152.79 -4.58 148.05 -6.58 144.14 -10.71 C140.30 -14.62 138.45 -19.43 138.45 -25.05 C138.45 -30.66 140.30 -35.46 144.14 -39.45 C145.91 -41.30 148.05 -42.78 150.49 -43.88 C152.86 -44.99 155.22 -45.58 157.59 -45.58 C159.87 -45.58 161.87 -45.28 163.64 -44.76 C169.04 -43.15 173.10 -39.89 175.83 -34.94 L181.52 -34.94 C179.60 -39.67 176.56 -43.51 172.36 -46.47 C168.07 -49.42 163.42 -50.90 158.33 -50.90 C151.31 -50.90 145.40 -48.32 140.52 -43.21 C138.23 -40.85 136.45 -38.04 135.20 -34.94 C133.87 -31.83 133.28 -28.51 133.28 -25.05 C133.28 -17.95 135.65 -11.97 140.52 -6.95 C145.40 -1.78 151.31 0.74 158.33 0.74 C163.42 0.74 168.07 -0.74 172.43 -3.69 C176.65 -6.65 179.67 -10.49 181.60 -15.36 Z M217.44 -16.40 C217.44 -13.15 216.27 -10.41 213.97 -8.13 C211.60 -5.76 208.88 -4.65 205.62 -4.65 C202.37 -4.65 199.56 -5.76 197.28 -8.13 C194.91 -10.41 193.80 -13.15 193.80 -16.40 C193.80 -19.65 194.91 -22.38 197.28 -24.75 C199.56 -27.03 202.37 -28.22 205.62 -28.22 C208.88 -28.22 211.60 -27.03 213.97 -24.75 C216.27 -22.38 217.44 -19.65 217.44 -16.40 Z M222.61 -16.40 C222.61 -21.05 220.92 -25.05 217.59 -28.37 C214.27 -31.70 210.27 -33.39 205.62 -33.39 C200.89 -33.39 196.91 -31.70 193.58 -28.37 C190.26 -25.05 188.63 -21.05 188.63 -16.40 C188.63 -11.67 190.26 -7.69 193.58 -4.43 C196.91 -1.11 200.97 0.52 205.62 0.52 C210.21 0.52 214.27 -1.11 217.59 -4.43 C220.92 -7.69 222.61 -11.67 222.61 -16.40 Z M255.44 0.00 L260.61 0.00 L260.61 -20.31 C260.61 -24.08 259.57 -27.11 257.66 -29.40 C256.62 -30.59 255.44 -31.46 254.03 -32.13 C252.55 -32.80 250.71 -33.17 248.42 -33.17 C246.06 -33.17 244.06 -32.50 242.28 -31.33 C240.58 -30.22 239.19 -28.74 238.15 -26.89 L238.15 -32.50 L232.98 -32.50 L232.98 0.00 L238.15 0.00 L238.15 -13.60 C238.15 -17.73 238.89 -20.98 240.43 -23.42 C241.32 -24.75 242.43 -25.85 243.84 -26.74 C245.17 -27.55 247.01 -28.00 249.23 -28.00 C251.45 -28.00 252.99 -27.18 253.96 -25.70 C254.92 -24.23 255.44 -22.38 255.44 -20.31 L255.44 0.00 Z M268.02 -27.70 L276.14 -27.70 L276.14 0.00 L281.31 0.00 L281.31 -27.70 L289.37 -27.70 L289.37 -32.50 L281.31 -32.50 L281.31 -45.13 L276.14 -45.13 L276.14 -32.50 L268.02 -32.50 L268.02 -27.70 Z M314.57 -25.79 L314.57 -32.50 C313.55 -32.94 312.44 -33.17 311.33 -33.17 C307.64 -33.17 304.97 -31.10 303.27 -27.11 L303.05 -25.79 L303.05 -32.50 L297.88 -32.50 L297.88 0.00 L303.05 0.00 L303.05 -16.25 C303.05 -18.91 303.64 -21.27 304.90 -23.42 C305.49 -24.53 306.31 -25.49 307.27 -26.22 C308.22 -26.96 309.40 -27.40 310.74 -27.40 C312.07 -27.40 313.33 -26.81 314.57 -25.79 Z M348.95 -16.40 C348.95 -13.15 347.77 -10.41 345.48 -8.13 C343.11 -5.76 340.39 -4.65 337.13 -4.65 C333.88 -4.65 331.07 -5.76 328.79 -8.13 C326.42 -10.41 325.31 -13.15 325.31 -16.40 C325.31 -19.65 326.42 -22.38 328.79 -24.75 C331.07 -27.03 333.88 -28.22 337.13 -28.22 C340.39 -28.22 343.11 -27.03 345.48 -24.75 C347.77 -22.38 348.95 -19.65 348.95 -16.40 Z M354.12 -16.40 C354.12 -21.05 352.42 -25.05 349.10 -28.37 C345.78 -31.70 341.78 -33.39 337.13 -33.39 C332.40 -33.39 328.42 -31.70 325.09 -28.37 C321.77 -25.05 320.14 -21.05 320.14 -16.40 C320.14 -11.67 321.77 -7.69 325.09 -4.43 C328.42 -1.11 332.48 0.52 337.13 0.52 C341.71 0.52 345.78 -1.11 349.10 -4.43 C352.42 -7.69 354.12 -11.67 354.12 -16.40 Z M369.66 0.00 L369.66 -55.40 L364.49 -55.40 L364.49 0.00 L369.66 0.00 Z M387.41 -24.90 L387.41 -45.28 L399.08 -45.28 C402.11 -45.28 404.55 -44.32 406.40 -42.48 C408.16 -40.56 409.13 -38.19 409.13 -35.24 C409.13 -32.20 408.16 -29.77 406.25 -27.77 C404.33 -25.85 401.96 -24.90 399.08 -24.90 L387.41 -24.90 Z M414.30 -35.09 C414.30 -39.52 412.67 -43.15 409.57 -46.02 C406.46 -48.82 402.77 -50.23 398.34 -50.23 L382.24 -50.23 L382.24 0.00 L387.41 0.00 L387.41 -19.88 L398.34 -19.88 C402.77 -19.88 406.55 -21.27 409.57 -24.08 C412.67 -27.03 414.30 -30.66 414.30 -35.09 Z M439.51 -25.79 L439.51 -32.50 C438.48 -32.94 437.37 -33.17 436.26 -33.17 C432.57 -33.17 429.90 -31.10 428.21 -27.11 L427.99 -25.79 L427.99 -32.50 L422.82 -32.50 L422.82 0.00 L427.99 0.00 L427.99 -16.25 C427.99 -18.91 428.57 -21.27 429.83 -23.42 C430.42 -24.53 431.24 -25.49 432.20 -26.22 C433.16 -26.96 434.33 -27.40 435.67 -27.40 C437.00 -27.40 438.26 -26.81 439.51 -25.79 Z M473.88 -16.40 C473.88 -13.15 472.71 -10.41 470.41 -8.13 C468.04 -5.76 465.32 -4.65 462.06 -4.65 C458.81 -4.65 456.00 -5.76 453.72 -8.13 C451.35 -10.41 450.24 -13.15 450.24 -16.40 C450.24 -19.65 451.35 -22.38 453.72 -24.75 C456.00 -27.03 458.81 -28.22 462.06 -28.22 C465.32 -28.22 468.04 -27.03 470.41 -24.75 C472.71 -22.38 473.88 -19.65 473.88 -16.40 Z M479.05 -16.40 C479.05 -21.05 477.36 -25.05 474.03 -28.37 C470.71 -31.70 466.72 -33.39 462.06 -33.39 C457.33 -33.39 453.35 -31.70 450.02 -28.37 C446.70 -25.05 445.07 -21.05 445.07 -16.40 C445.07 -11.67 446.70 -7.69 450.02 -4.43 C453.35 -1.11 457.41 0.52 462.06 0.52 C466.65 0.52 470.71 -1.11 474.03 -4.43 C477.36 -7.69 479.05 -11.67 479.05 -16.40 Z" fill="#EFE7D6" transform="translate(75.81 80.00)"/>
  </g>
</svg>